<?xml version="1.0" encoding="utf-8"?>
<!-- Generator: Adobe Illustrator 23.0.5, SVG Export Plug-In . SVG Version: 6.00 Build 0)  -->
<svg version="1.1" id="Layer_1" xmlns="http://www.w3.org/2000/svg" xmlns:xlink="http://www.w3.org/1999/xlink" x="0px" y="0px"
	 viewBox="0 0 168 116" style="enable-background:new 0 0 168 116;" xml:space="preserve">
<style type="text/css">
	.st0{fill:#4F7F55;}
	.st1{font-family:'Verdana';}
	.st2{font-size:21.1667px;}
	.st3{font-size:7.4706px;}
</style>
<g>
	<path class="st0" d="M12.9,67c-0.3,1.6-0.6,3.3-0.9,4.9c-0.1,0.4,0.2,0.7,0.4,1c0.9,1.7,0.7,3.3-0.2,5c-0.4,0.8-1.1,0.9-2,0.4
		c-0.1,0.2-0.3,0.4-0.4,0.6c-0.4,0.9-0.7,1.1-1.6,1c-0.8-0.1-1.4-0.5-1.6-1.3c-0.4-1.7-0.8-3.4-1.1-5.2c-0.4-2.8-0.6-5.5-0.8-8.3
		c-0.1-0.9,0-1.9,0-2.8c0-0.4-0.1-0.6-0.1-1c0-0.4,0.1-1,0.2-1.4C5,58.6,5.1,57.3,5.2,56c0.2-0.7,0.4-1.5,0.8-2.1
		c1.8-3.3,2-6.9,1.5-10.6C6,44,4.4,44.6,2.7,45.2C2,45.5,1.8,45.5,1.3,45c-0.6-0.7-0.9-1.5-0.7-2.5C0.8,41.2,1.1,40,1.8,39
		c0.4-0.6,0.5-1.4,0.7-2.1c0.1-0.3,0.2-0.4,0.4-0.6c0.4-0.4,0.7-1,1.1-1.4c0.8-1,1.2-2.2,1.7-3.4c0.8-1.8,1.7-3.6,4.1-3.8
		c1.3-0.1,2.6-0.5,3.8-0.8c0.2,0,0.4-0.2,0.5-0.3c0.8-0.7,0.8-0.7,2-0.5c0-0.4,0-0.7,0-1.1s0-0.7,0-1.1c-0.7,0-1-0.5-1-1.2
		c-0.1-0.7-0.5-1.4,0.3-2.1c0.1-0.1,0-0.4,0-0.4c0.1-1.1,0.2-2.1,0.4-3.2c0.1-0.4,0.4-0.7,0.6-0.9c0.4-0.4,0.8-0.9,1.4-1
		c0.4,0,0.8-0.2,1.2-0.4c0.8-0.4,1.5,0,2.2,0.2c0.5,0.2,1,0.4,1.5,0.7c0.5,0.3,0.8,0.7,0.8,1.3c0,0.4,0,0.8,0.1,1.3
		c0,0.5,0.1,1.2,0.1,1.7c0,0.4-0.2,0.9,0.3,1.3c0.1,0.1,0,0.4,0,0.5c0,0.4-0.1,0.8-0.2,1.2c-0.1,0.4,0,1-0.6,1.1
		c-0.1,0-0.2,0.3-0.2,0.4c-0.4,0.9-0.6,1.7-1,2.7c0.9,0.2,1.3,0.9,2,1.7c0.5,0.6,1.6,1.1,2.4,1.3c1.1,0.3,1.5,0.4,1.8,1.5
		c0.4,1.5,0.4,3-0.3,4.4c-0.3,0.5-0.3,1.1-0.2,1.7c0.2,1.6,0.4,3.2,0.2,4.7c-0.1,1.1-0.6,2.1-1.1,3.2c-0.3,0.5-0.2,1.1,0,1.6
		c0.3,0.7,0.2,1.3-0.2,2.1c-0.4,0.7-0.7,0.8-1.3,0.9c-1,0.1-1.5-0.4-1.6-1.4c-0.1-1-0.2-2.1-0.3-3c0-0.1-0.1-0.3-0.3-0.5
		c-0.2,1.1-0.3,2.1-0.4,3c-0.2,0.8-0.4,1.6-0.5,2.4c-0.1,0.5-0.1,1.1-0.1,1.6c0,0.1,0.1,0.3,0.1,0.4c-0.4,1.1,0,2.1,0.3,3
		c0.2,0.5,0.1,1.2,0.3,1.7c0.4,1.3,0.4,2.5,0.2,3.8c-0.4,2.3-0.7,4.7-1.1,7.2c-0.1,0.4-0.2,1-0.4,1.4c-0.6,2.2-1.3,4.5-1.8,6.8
		c-0.2,0.6-0.2,1.3-0.1,2c0.4,2.4,0.2,4.8-0.6,7.2c-0.8,2.4-1.7,4.7-2.5,7.2c-0.4,1.2-0.5,2.3-0.9,3.6c-0.4,1.4-0.2,2.8,0.3,4.1
		c0.1,0.4,0.1,0.9-0.3,1.3c-0.4,0.4-0.8,0.1-1.2,0c-0.5-0.2-1.1-0.3-1.6-0.4c-0.4-0.2-1-0.4-1.4-0.6c-1.1-0.5-1.1-0.6-0.5-1.7
		c0.3-0.4,0.4-1.1,0.5-1.5c0.2-0.4,0.4-0.9,0.5-1.3c0-0.1,0.1-0.1,0.1-0.2c-0.1-1.3,0.9-2.2,1.2-3.4c0.1-0.4,0.2-0.9,0.2-1.3
		c0-2-0.2-3.9-0.1-5.9c0-1.3,0.3-2.5,0.4-3.8c0.1-0.7,0.4-1.3,0.6-2.1c0.4-1,0.6-2,0.2-3c-0.1-0.3-0.1-0.5,0-0.8
		c0.4-1.4,0.1-2.8-0.2-4.2c-0.3-1.3-0.4-2.6-0.7-3.8c0-0.1-0.1-0.3-0.1-0.4C13.1,67,13,67,12.9,67z"/>
	<g>
		<text transform="matrix(1 0 0 1 24.1006 84.0537)" class="st0 st1 st2">RunWithSyed</text>
	</g>
	<g>
		<text transform="matrix(1 0 0 1 43.0259 94.6367)" class="st0 st1 st3">Improving life one mile at a time</text>
	</g>
</g>
</svg>
